<?xml version="1.0" encoding="utf-8"?>
<!-- Generator: Adobe Illustrator 25.3.1, SVG Export Plug-In . SVG Version: 6.00 Build 0)  -->
<svg version="1.1" id="Layer_1" xmlns="http://www.w3.org/2000/svg" xmlns:xlink="http://www.w3.org/1999/xlink" x="0px" y="0px"
	 viewBox="0 0 1668.2 513" style="enable-background:new 0 0 1668.2 513;" xml:space="preserve">
<style type="text/css">
	.st0{fill:#808285;}
	.st1{fill:#0D5588;}
	.st2{fill:#FFFFFF;}
	.st3{fill:#0295B8;}
	.st4{fill:#5DBCD5;}
	.st5{fill:none;}
</style>
<g>
	<path class="st0" d="M553.8,393v-16.4h5v16.2c0,5.3,2.7,8.2,7.2,8.2c4.4,0,7.2-2.7,7.2-8v-16.4h5v16.2c0,8.5-4.8,12.8-12.3,12.8
		C558.6,405.6,553.8,401.3,553.8,393z"/>
	<path class="st0" d="M585.5,376.6h12.7c3.6,0,6.4,1.1,8.2,2.8c1.5,1.6,2.4,3.7,2.4,6.2v0.1c0,4.7-2.8,7.5-6.8,8.6l7.7,10.8h-5.9
		l-7-10h-6.3v10h-5V376.6z M597.9,390.7c3.6,0,5.9-1.9,5.9-4.8v-0.1c0-3.1-2.2-4.7-5.9-4.7h-7.3v9.6H597.9z"/>
	<path class="st0" d="M615.4,376.6h12.8c3.3,0,5.8,0.9,7.5,2.5c1.3,1.3,1.9,2.8,1.9,4.7v0.1c0,3.4-2,5.3-4.1,6.4
		c3.3,1.1,5.7,3.1,5.7,6.9v0.1c0,5.1-4.2,7.8-10.6,7.8h-13.2V376.6z M627.2,388.6c3.2,0,5.4-1.3,5.4-3.9v-0.1c0-2.2-1.8-3.6-5-3.6
		h-7.2v7.6H627.2z M628.7,400.7c3.4,0,5.5-1.3,5.5-3.9v-0.1c0-2.4-1.9-3.8-5.9-3.8h-8v7.8H628.7z"/>
	<path class="st0" d="M655.3,376.4h4.6l12.6,28.8h-5.3l-2.9-6.9h-13.5l-2.9,6.9h-5.1L655.3,376.4z M662.5,393.8l-4.9-11.4l-4.9,11.4
		H662.5z"/>
	<path class="st0" d="M677.8,376.6h4.7l15.3,19.7v-19.7h4.9v28.6h-4.2l-15.7-20.3v20.3h-4.9V376.6z"/>
	<path class="st0" d="M726.5,376.6h5v28.6h-5V376.6z"/>
	<path class="st0" d="M740.4,376.6h4.7l15.3,19.7v-19.7h4.9v28.6h-4.2l-15.7-20.3v20.3h-4.9V376.6z"/>
	<path class="st0" d="M771.9,401l3-3.6c2.7,2.4,5.5,3.7,9,3.7c3.1,0,5.1-1.4,5.1-3.6v-0.1c0-2-1.1-3.1-6.4-4.4
		c-6.1-1.5-9.5-3.3-9.5-8.5v-0.1c0-4.9,4.1-8.3,9.7-8.3c4.2,0,7.5,1.3,10.4,3.6l-2.7,3.8c-2.6-1.9-5.1-2.9-7.8-2.9
		c-2.9,0-4.7,1.5-4.7,3.4v0.1c0,2.2,1.3,3.2,6.8,4.5c6,1.5,9.2,3.6,9.2,8.4v0.1c0,5.3-4.2,8.5-10.2,8.5
		C779.4,405.5,775.3,404,771.9,401z"/>
	<path class="st0" d="M806.7,381.2h-9.1v-4.6h23.2v4.6h-9v23.9h-5.1V381.2z"/>
	<path class="st0" d="M827.5,376.6h5v28.6h-5V376.6z"/>
	<path class="st0" d="M848.4,381.2h-9.1v-4.6h23.2v4.6h-9.1v23.9h-5.1V381.2z"/>
	<path class="st0" d="M867.7,393v-16.4h5v16.2c0,5.3,2.7,8.2,7.2,8.2c4.4,0,7.2-2.7,7.2-8v-16.4h5v16.2c0,8.5-4.8,12.8-12.3,12.8
		C872.4,405.6,867.7,401.3,867.7,393z"/>
	<path class="st0" d="M907.2,381.2h-9.1v-4.6h23.2v4.6h-9.1v23.9h-5.1V381.2z"/>
	<path class="st0" d="M927.8,376.6H949v4.5h-16.2v7.4h14.3v4.5h-14.3v7.7h16.4v4.5h-21.4V376.6z"/>
	<path class="st0" d="M987.4,401.8c-2.4,2.3-5.3,3.7-8.8,3.7c-5.3,0-9.3-3.2-9.3-8.2v-0.1c0-3.7,2.2-6.3,6.1-8
		c-1.6-2.1-2.4-3.9-2.4-6v-0.1c0-3.8,3.1-7.2,8.2-7.2c4.5,0,7.6,3.1,7.6,6.9v0.1c0,3.8-2.5,6-6.3,7.4l4.9,5c1.1-1.6,2.1-3.5,3.1-5.5
		l3.8,2c-1.1,2.3-2.4,4.5-3.9,6.5l4.5,4.6l-3.7,2.7L987.4,401.8z M984.5,398.9l-6.4-6.5c-2.7,1.1-3.8,2.9-3.8,4.7v0.1
		c0,2.4,2,4.2,4.8,4.2C981.1,401.4,982.9,400.4,984.5,398.9z M984.4,383.3L984.4,383.3c0-2-1.3-3.3-3.3-3.3c-2,0-3.4,1.4-3.4,3.4
		v0.1c0,1.4,0.6,2.5,2.2,4.2C982.8,386.7,984.4,385.4,984.4,383.3z"/>
	<path class="st0" d="M1012.8,376.6h12.8c3.3,0,5.8,0.9,7.5,2.5c1.3,1.3,1.9,2.8,1.9,4.7v0.1c0,3.4-2,5.3-4.1,6.4
		c3.4,1.1,5.7,3.1,5.7,6.9v0.1c0,5.1-4.2,7.8-10.6,7.8h-13.2V376.6z M1024.6,388.6c3.2,0,5.4-1.3,5.4-3.9v-0.1c0-2.2-1.8-3.6-5-3.6
		h-7.2v7.6H1024.6z M1026,400.7c3.4,0,5.5-1.3,5.5-3.9v-0.1c0-2.4-1.9-3.8-5.9-3.8h-8v7.8H1026z"/>
	<path class="st0" d="M1042.6,376.6h12.7c3.6,0,6.4,1.1,8.2,2.8c1.5,1.6,2.4,3.7,2.4,6.2v0.1c0,4.7-2.8,7.5-6.8,8.6l7.7,10.8h-5.9
		l-7-10h-6.3v10h-5V376.6z M1054.9,390.7c3.6,0,5.9-1.9,5.9-4.8v-0.1c0-3.1-2.2-4.7-5.9-4.7h-7.3v9.6H1054.9z"/>
	<path class="st0" d="M1070.4,390.9L1070.4,390.9c0-8.1,6.2-14.8,15-14.8c8.8,0,14.9,6.6,14.9,14.7v0.1c0,8-6.2,14.8-15,14.8
		S1070.4,399,1070.4,390.9z M1095,390.9L1095,390.9c0-5.6-4-10.2-9.7-10.2s-9.6,4.5-9.6,10.1v0.1c0,5.6,4,10.2,9.7,10.2
		C1091,401,1095,396.5,1095,390.9z"/>
	<path class="st0" d="M1103.8,390.9L1103.8,390.9c0-8.1,6.2-14.8,15-14.8c8.8,0,14.9,6.6,14.9,14.7v0.1c0,8-6.2,14.8-15,14.8
		C1109.9,405.6,1103.8,399,1103.8,390.9z M1128.4,390.9L1128.4,390.9c0-5.6-4-10.2-9.7-10.2c-5.7,0-9.6,4.5-9.6,10.1v0.1
		c0,5.6,4,10.2,9.7,10.2C1124.4,401,1128.4,396.5,1128.4,390.9z"/>
	<path class="st0" d="M1138.4,376.6h5v14.4l13.6-14.4h6.2l-11.9,12.3l12.4,16.3h-6.1l-9.7-12.8l-4.4,4.6v8.3h-5V376.6z"/>
	<path class="st0" d="M1168.7,376.6h5v28.6h-5V376.6z"/>
	<path class="st0" d="M1183.3,376.6h4.7l15.3,19.7v-19.7h4.9v28.6h-4.2l-15.8-20.3v20.3h-4.9V376.6z"/>
	<path class="st0" d="M1213.8,390.9L1213.8,390.9c0-8.1,6.1-14.8,14.7-14.8c5,0,8,1.4,11,3.9l-3.2,3.8c-2.2-1.9-4.4-3.1-8-3.1
		c-5.3,0-9.3,4.6-9.3,10.1v0.1c0,5.9,3.9,10.2,9.7,10.2c2.7,0,5.1-0.9,6.9-2.2v-5.3h-7.3v-4.4h12.2v12c-2.8,2.4-6.9,4.5-11.9,4.5
		C1219.7,405.6,1213.8,399.3,1213.8,390.9z"/>
	<path class="st0" d="M1245.5,401l3-3.6c2.7,2.4,5.5,3.7,9,3.7c3.1,0,5.1-1.4,5.1-3.6v-0.1c0-2-1.1-3.1-6.4-4.4
		c-6.1-1.5-9.5-3.3-9.5-8.5v-0.1c0-4.9,4.1-8.3,9.8-8.3c4.2,0,7.5,1.3,10.4,3.6l-2.7,3.8c-2.6-1.9-5.1-2.9-7.8-2.9
		c-2.9,0-4.6,1.5-4.6,3.4v0.1c0,2.2,1.3,3.2,6.8,4.5c6,1.5,9.2,3.6,9.2,8.4v0.1c0,5.3-4.2,8.5-10.2,8.5
		C1253.1,405.5,1248.9,404,1245.5,401z"/>
	<path class="st0" d="M1289.2,376.6h5v28.6h-5V376.6z"/>
	<path class="st0" d="M1303.9,376.6h4.7l15.3,19.7v-19.7h4.9v28.6h-4.2l-15.8-20.3v20.3h-4.9V376.6z"/>
	<path class="st0" d="M1335.4,401l3-3.6c2.7,2.4,5.5,3.7,9,3.7c3.1,0,5.1-1.4,5.1-3.6v-0.1c0-2-1.1-3.1-6.4-4.4
		c-6.1-1.5-9.5-3.3-9.5-8.5v-0.1c0-4.9,4.1-8.3,9.8-8.3c4.2,0,7.5,1.3,10.4,3.6l-2.7,3.8c-2.6-1.9-5.1-2.9-7.7-2.9
		c-2.9,0-4.7,1.5-4.7,3.4v0.1c0,2.2,1.3,3.2,6.8,4.5c6,1.5,9.2,3.6,9.2,8.4v0.1c0,5.3-4.2,8.5-10.2,8.5
		C1342.9,405.5,1338.8,404,1335.4,401z"/>
	<path class="st0" d="M1371,381.2h-9.1v-4.6h23.2v4.6h-9.1v23.9h-5.1V381.2z"/>
	<path class="st0" d="M1391.9,376.6h5v28.6h-5V376.6z"/>
	<path class="st0" d="M1412.7,381.2h-9v-4.6h23.2v4.6h-9.1v23.9h-5.1V381.2z"/>
	<path class="st0" d="M1432,393v-16.4h5v16.2c0,5.3,2.7,8.2,7.2,8.2c4.4,0,7.2-2.7,7.2-8v-16.4h5v16.2c0,8.5-4.8,12.8-12.3,12.8
		C1436.8,405.6,1432,401.3,1432,393z"/>
	<path class="st0" d="M1470.7,381.2h-9.1v-4.6h23.2v4.6h-9.1v23.9h-5.1V381.2z"/>
	<path class="st0" d="M1491.6,376.6h5v28.6h-5V376.6z"/>
	<path class="st0" d="M1503.4,390.9L1503.4,390.9c0-8.1,6.2-14.8,15-14.8c8.8,0,14.9,6.6,14.9,14.7v0.1c0,8-6.2,14.8-15,14.8
		C1509.5,405.6,1503.4,399,1503.4,390.9z M1528,390.9L1528,390.9c0-5.6-4-10.2-9.7-10.2s-9.6,4.5-9.6,10.1v0.1
		c0,5.6,4,10.2,9.7,10.2C1524,401,1528,396.5,1528,390.9z"/>
	<path class="st0" d="M1538,376.6h4.7l15.3,19.7v-19.7h4.9v28.6h-4.2l-15.7-20.3v20.3h-4.9V376.6z"/>
</g>
<g>
	<path class="st1" d="M558.9,296.8h-20.5v-13.7h55.8v13.7h-20.5v53.7h-14.8V296.8z"/>
	<path class="st1" d="M621,282.7h13.7l28.9,67.9h-15.5l-6.2-15.1h-28.5l-6.2,15.1h-15.1L621,282.7z M636.6,322.3l-9-21.9l-9,21.9
		H636.6z"/>
	<path class="st1" d="M693.3,316.3l-22.5-33.1h17.3l14.1,21.9l14.3-21.9h16.9l-22.5,32.9l23.5,34.5H717l-15.1-23.1l-15.2,23.1h-16.8
		L693.3,316.3z"/>
	<path class="st1" d="M768.5,283.2h27.5c16.1,0,25.8,9.5,25.8,23.3v0.2c0,15.6-12.1,23.7-27.2,23.7h-11.3v20.2h-14.8V283.2z
		 M795.1,317.1c7.4,0,11.7-4.4,11.7-10.2v-0.2c0-6.6-4.6-10.2-12-10.2h-11.5v20.6H795.1z"/>
	<path class="st1" d="M830.8,317v-0.2c0-19.2,15.1-34.9,35.9-34.9c20.8,0,35.7,15.5,35.7,34.7v0.2c0,19.2-15.1,34.9-35.9,34.9
		C845.7,351.7,830.8,336.2,830.8,317z M886.9,317v-0.2c0-11.6-8.5-21.2-20.4-21.2c-11.9,0-20.2,9.4-20.2,21v0.2
		c0,11.6,8.5,21.2,20.4,21.2C878.7,338,886.9,328.6,886.9,317z"/>
	<path class="st1" d="M914.7,283.2h14.8v53.9h33.6v13.5h-48.4V283.2z"/>
	<path class="st1" d="M975.5,283.2h14.8v67.4h-14.8V283.2z"/>
	<path class="st1" d="M1003.2,317v-0.2c0-19.2,14.4-34.9,35.1-34.9c12.7,0,20.3,4.2,26.6,10.4l-9.4,10.9c-5.2-4.7-10.5-7.6-17.2-7.6
		c-11.4,0-19.5,9.4-19.5,21v0.2c0,11.6,8,21.2,19.5,21.2c7.7,0,12.4-3.1,17.7-7.9l9.4,9.5c-6.9,7.4-14.6,12-27.6,12
		C1018,351.7,1003.2,336.4,1003.2,317z"/>
	<path class="st1" d="M1097.2,324l-25.9-40.8h17.3l16.1,27.1l16.4-27.1h16.8l-25.9,40.5v26.9h-14.8V324z"/>
	<path class="st1" d="M1159.6,317v-0.2c0-19.2,14.4-34.9,35.1-34.9c12.7,0,20.3,4.2,26.6,10.4l-9.4,10.9c-5.2-4.7-10.5-7.6-17.2-7.6
		c-11.4,0-19.6,9.4-19.6,21v0.2c0,11.6,8,21.2,19.6,21.2c7.7,0,12.4-3.1,17.7-7.9l9.4,9.5c-6.9,7.4-14.6,12-27.6,12
		C1174.3,351.7,1159.6,336.4,1159.6,317z"/>
	<path class="st1" d="M1234.6,283.2h50.8v13.2h-36.1V310h31.8v13.2h-31.8v14.2h36.6v13.2h-51.3V283.2z"/>
	<path class="st1" d="M1300,283.2h13.7l31.6,41.5v-41.5h14.6v67.4h-12.6l-32.6-42.8v42.8H1300V283.2z"/>
	<path class="st1" d="M1392.7,296.8h-20.5v-13.7h55.8v13.7h-20.5v53.7h-14.8V296.8z"/>
	<path class="st1" d="M1440.4,283.2h50.8v13.2h-36.1V310h31.8v13.2h-31.8v14.2h36.6v13.2h-51.3V283.2z"/>
	<path class="st1" d="M1505.9,283.2h30.8c8.6,0,15.2,2.4,19.6,6.8c3.8,3.8,5.8,9.1,5.8,15.4v0.2c0,10.9-5.9,17.7-14.4,20.9
		l16.5,24.1h-17.3l-14.4-21.6h-11.7v21.6h-14.8V283.2z M1535.7,315.9c7.2,0,11.4-3.9,11.4-9.5v-0.2c0-6.4-4.4-9.6-11.7-9.6h-14.7
		v19.4H1535.7z"/>
</g>
<rect x="105.3" y="86" class="st1" width="401.8" height="343.2"/>
<g>
	<g>
		<path class="st2" d="M177.1,303.6h-34.9v-23.2h94.9v23.2h-34.9v91.3h-25.2V303.6z"/>
		<path class="st2" d="M261.4,280.3h46.8c27.3,0,43.9,16.2,43.9,39.6v0.3c0,26.5-20.6,40.3-46.3,40.3h-19.1v34.4h-25.2V280.3z
			 M306.5,338.1c12.6,0,20-7.5,20-17.3v-0.3c0-11.3-7.9-17.3-20.5-17.3h-19.5v35H306.5z"/>
		<path class="st2" d="M366.3,338v-0.3c0-32.6,24.6-59.2,59.7-59.2c21.6,0,34.5,7.2,45.2,17.7l-16,18.5c-8.8-8-17.8-12.9-29.3-12.9
			c-19.3,0-33.2,16-33.2,35.7v0.3c0,19.6,13.6,36,33.2,36c13.1,0,21.1-5.2,30.1-13.4l16,16.2c-11.8,12.6-24.9,20.5-47,20.5
			C391.3,396.9,366.3,370.9,366.3,338z"/>
	</g>
</g>
<rect x="141.7" y="123.9" class="st3" width="55.5" height="55.6"/>
<rect x="210.1" y="123.9" class="st4" width="55.5" height="55.6"/>
<rect x="278.4" y="123.9" class="st4" width="55.5" height="55.6"/>
<rect x="346.8" y="123.9" class="st3" width="55.5" height="55.6"/>
<rect x="415.2" y="123.9" class="st3" width="55.5" height="55.6"/>
<rect x="141.7" y="191.7" class="st4" width="55.5" height="55.6"/>
<rect x="210.1" y="191.7" class="st4" width="55.5" height="55.6"/>
<rect x="278.4" y="191.7" class="st4" width="55.5" height="55.6"/>
<rect x="346.8" y="191.7" class="st3" width="55.5" height="55.6"/>
<rect x="415.2" y="191.7" class="st4" width="55.5" height="55.6"/>
<rect class="st5" width="1668.2" height="513"/>
</svg>
