<svg id="Layer_1" data-name="Layer 1" xmlns="http://www.w3.org/2000/svg" viewBox="0 0 400 240"><defs><style>.cls-1{fill:none;}.cls-2{fill:#231f20;}.cls-3{fill:#1696d2;}.cls-4{fill:#9d9fa2;}</style></defs><title>ui-logo</title><metadata><?xpacket begin="﻿" id="W5M0MpCehiHzreSzNTczkc9d"?>
<x:xmpmeta xmlns:x="adobe:ns:meta/" x:xmptk="Adobe XMP Core 5.6-c148 79.163858, 2019/03/06-03:18:36        ">
   <rdf:RDF xmlns:rdf="http://www.w3.org/1999/02/22-rdf-syntax-ns#">
      <rdf:Description rdf:about=""
            xmlns:dc="http://purl.org/dc/elements/1.1/"
            xmlns:lr="http://ns.adobe.com/lightroom/1.0/"
            xmlns:xmp="http://ns.adobe.com/xap/1.0/"
            xmlns:xmpMM="http://ns.adobe.com/xap/1.0/mm/"
            xmlns:stEvt="http://ns.adobe.com/xap/1.0/sType/ResourceEvent#">
         <dc:title>
            <rdf:Alt>
               <rdf:li xml:lang="x-default">ui-logo</rdf:li>
            </rdf:Alt>
         </dc:title>
         <dc:subject>
            <rdf:Bag>
               <rdf:li>Urban Brand 2018</rdf:li>
            </rdf:Bag>
         </dc:subject>
         <dc:creator>
            <rdf:Seq>
               <rdf:li>John Wehmann</rdf:li>
            </rdf:Seq>
         </dc:creator>
         <lr:hierarchicalSubject>
            <rdf:Bag>
               <rdf:li>Urban Brand 2018</rdf:li>
            </rdf:Bag>
         </lr:hierarchicalSubject>
         <xmp:MetadataDate>2019-09-06T08:48:18-04:00</xmp:MetadataDate>
         <xmpMM:InstanceID>xmp.iid:aabd6335-d8e3-44bb-ae52-b02385980a6c</xmpMM:InstanceID>
         <xmpMM:DocumentID>xmp.did:48443867-1ceb-4f2e-a9ee-67e9a281f426</xmpMM:DocumentID>
         <xmpMM:OriginalDocumentID>xmp.did:48443867-1ceb-4f2e-a9ee-67e9a281f426</xmpMM:OriginalDocumentID>
         <xmpMM:History>
            <rdf:Seq>
               <rdf:li>
                  <rdf:Description>
                     <stEvt:action>saved</stEvt:action>
                     <stEvt:instanceID>xmp.iid:48443867-1ceb-4f2e-a9ee-67e9a281f426</stEvt:instanceID>
                     <stEvt:when>2018-02-06T16:26:50-05:00</stEvt:when>
                     <stEvt:softwareAgent>Adobe Bridge CC 2018 (Macintosh)</stEvt:softwareAgent>
                     <stEvt:changed>/metadata</stEvt:changed>
                  </rdf:Description>
               </rdf:li>
               <rdf:li>
                  <rdf:Description>
                     <stEvt:action>saved</stEvt:action>
                     <stEvt:instanceID>xmp.iid:aabd6335-d8e3-44bb-ae52-b02385980a6c</stEvt:instanceID>
                     <stEvt:when>2019-09-06T08:48:18-04:00</stEvt:when>
                     <stEvt:softwareAgent>Adobe Bridge 2019 (Macintosh)</stEvt:softwareAgent>
                     <stEvt:changed>/metadata</stEvt:changed>
                  </rdf:Description>
               </rdf:li>
            </rdf:Seq>
         </xmpMM:History>
      </rdf:Description>
   </rdf:RDF>
</x:xmpmeta>
                                                                                                    
                                                                                                    
                                                                                                    
                                                                                                    
                                                                                                    
                                                                                                    
                                                                                                    
                                                                                                    
                                                                                                    
                                                                                                    
                                                                                                    
                                                                                                    
                                                                                                    
                                                                                          
<?xpacket end="w"?></metadata>
<rect class="cls-1" width="400" height="240"/><path class="cls-2" d="M133.62,127.86h5.14V142h-5.14Z"/><path class="cls-2" d="M156,127.86h4.94l4.62,7.86h.15a22.09,22.09,0,0,1-.43-3.61v-4.25h4.92V142h-4.92l-4.53-7.44h-.14a16.55,16.55,0,0,1,.31,2.84V142H156Z"/><path class="cls-2" d="M185.54,137l.26.2a5.37,5.37,0,0,0,3.21,1.3c.51,0,1.32-.21,1.32-.84s-.68-.7-1.15-.79l-1-.19c-2-.36-3.7-1.54-3.7-3.76,0-3.36,3.06-5.24,6.14-5.24a8.4,8.4,0,0,1,4.49,1.24l-1.39,3.63a5.29,5.29,0,0,0-3-1.08c-.45,0-1.1.17-1.1.76s.63.6,1,.69l1.16.26c2.18.49,3.76,1.66,3.76,4.06,0,3.38-3.08,5.05-6.14,5.05A12.72,12.72,0,0,1,184,141Z"/><path class="cls-2" d="M211.49,127.86h10.82v4.61l-2.84-.13V142h-5.14v-9.69l-2.84.13Z"/><path class="cls-2" d="M240.29,127.86h5.14V142h-5.14Z"/><path class="cls-2" d="M263.72,127.86h10.82v4.61l-2.84-.13V142h-5.14v-9.69l-2.84.13Z"/><path class="cls-2" d="M303.29,127.86v8.38c0,4.14-2.6,6-6.56,6s-6.56-1.87-6.56-6v-8.38h5.15v7.9c0,1.1,0,2.08,1.41,2.08s1.41-1,1.41-2.08v-7.9Z"/><path class="cls-2" d="M317.05,127.86h10.82v4.61l-2.84-.13V142h-5.14v-9.69l-2.84.13Z"/><path class="cls-2" d="M344.61,127.86h9.53v3.88H349.8v1.35h4v3.68h-4v1.39h4.49V142h-9.68Z"/><path class="cls-3" d="M138.82,68v25.4c0,12.54-7.86,18.23-19.88,18.23s-19.88-5.69-19.88-18.23V68h15.61V91.89c0,3.36.11,6.33,4.27,6.33s4.27-3,4.27-6.33V68Z"/><path class="cls-3" d="M155.09,68h18.85c9.68,0,17.89,4.1,17.89,14.92,0,6.5-2.51,9.23-8.32,11.17v.34A10.93,10.93,0,0,1,186.13,97l9.34,14h-18l-6.83-13.79h-.29v13.79H155.09Zm15.26,19h1.08c2.57,0,5.13-.4,5.13-3.59s-2.33-3.7-5-3.7h-1.2Z"/><path class="cls-3" d="M207.41,68h18.18c8.31,0,16.8,2,16.8,11.9,0,3.76-1.88,7.47-5.64,8.66v.34c4.67,1.66,7.63,5.07,7.63,10.2,0,8.83-8.2,11.85-15.72,11.85H207.41Zm15.9,16.52c2.28,0,4.84-.23,4.84-3.19,0-3.19-2.91-3-5.19-3h-1.08v6.16Zm-1.43,16.18h1.77c2.56,0,6.27-.06,6.27-3.59s-4-3.54-6.5-3.54h-1.54Z"/><path class="cls-3" d="M269.83,110.92H253.31L268.23,68h17.26l15.33,43H284.3l-1.43-5.36H271.09Zm10.31-15.55-1.82-7.58c-.46-1.82-.74-3.7-1-5.53h-.57l-2.84,13.11Z"/><path class="cls-3" d="M311.15,68h15l14,23.81h.45a65.1,65.1,0,0,1-1.31-10.94V68h14.93v43H339.29L325.56,88.36h-.45a50.58,50.58,0,0,1,1,8.6v14H311.15Z"/><rect class="cls-4" x="213.53" y="213.14" width="4.44" height="4.44"/><rect class="cls-4" x="186.86" y="213.14" width="4.44" height="4.44"/><rect class="cls-4" x="106.86" y="213.14" width="4.44" height="4.44"/><rect class="cls-4" x="133.53" y="213.14" width="4.44" height="4.44"/><rect class="cls-4" x="160.2" y="213.14" width="4.44" height="4.44"/><rect class="cls-4" x="80.2" y="213.14" width="4.44" height="4.44"/><rect class="cls-4" x="53.53" y="213.14" width="4.44" height="4.44"/><rect class="cls-4" x="26.86" y="213.14" width="4.44" height="4.44"/><rect class="cls-4" x="186.86" y="53.14" width="4.44" height="4.44"/><rect class="cls-4" x="213.53" y="53.14" width="4.44" height="4.44"/><rect class="cls-4" x="106.86" y="53.14" width="4.44" height="4.44"/><rect class="cls-4" x="133.53" y="53.14" width="4.44" height="4.44"/><rect class="cls-4" x="160.2" y="53.14" width="4.44" height="4.44"/><rect class="cls-4" x="80.2" y="53.14" width="4.44" height="4.44"/><rect class="cls-4" x="186.86" y="159.81" width="4.44" height="4.44"/><rect class="cls-4" x="213.53" y="159.81" width="4.44" height="4.44"/><rect class="cls-4" x="106.86" y="159.81" width="4.44" height="4.44"/><rect class="cls-4" x="133.53" y="159.81" width="4.44" height="4.44"/><rect class="cls-4" x="160.2" y="159.81" width="4.44" height="4.44"/><rect class="cls-4" x="80.2" y="159.81" width="4.44" height="4.44"/><rect class="cls-4" x="80.2" y="133.14" width="4.44" height="4.44"/><rect class="cls-4" x="80.2" y="106.47" width="4.44" height="4.44"/><rect class="cls-4" x="80.2" y="79.81" width="4.44" height="4.44"/><rect class="cls-4" x="160.2" y="53.14" width="4.44" height="4.44"/><rect class="cls-4" x="186.86" y="53.14" width="4.44" height="4.44"/><rect class="cls-4" x="213.53" y="53.14" width="4.44" height="4.44"/><rect class="cls-4" x="80.2" y="53.14" width="4.44" height="4.44"/><rect class="cls-4" x="106.86" y="53.14" width="4.44" height="4.44"/><rect class="cls-4" x="133.53" y="53.14" width="4.44" height="4.44"/><rect class="cls-4" x="53.53" y="53.14" width="4.44" height="4.44"/><rect class="cls-4" x="53.53" y="159.81" width="4.44" height="4.44"/><rect class="cls-4" x="53.53" y="133.14" width="4.44" height="4.44"/><rect class="cls-4" x="53.53" y="106.47" width="4.44" height="4.44"/><rect class="cls-4" x="53.53" y="79.81" width="4.44" height="4.44"/><rect class="cls-4" x="133.53" y="53.14" width="4.44" height="4.44"/><rect class="cls-4" x="160.2" y="53.14" width="4.44" height="4.44"/><rect class="cls-4" x="186.86" y="53.14" width="4.44" height="4.44"/><rect class="cls-4" x="213.53" y="53.14" width="4.44" height="4.44"/><rect class="cls-4" x="53.53" y="53.14" width="4.44" height="4.44"/><rect class="cls-4" x="80.2" y="53.14" width="4.44" height="4.44"/><rect class="cls-4" x="106.86" y="53.14" width="4.44" height="4.44"/><rect class="cls-4" x="186.86" y="186.47" width="4.44" height="4.44"/><rect class="cls-4" x="213.53" y="186.47" width="4.44" height="4.44"/><rect class="cls-4" x="106.86" y="186.47" width="4.44" height="4.44"/><rect class="cls-4" x="133.53" y="186.47" width="4.44" height="4.44"/><rect class="cls-4" x="160.2" y="186.47" width="4.44" height="4.44"/><rect class="cls-4" x="80.2" y="186.47" width="4.44" height="4.44"/><rect class="cls-4" x="53.53" y="186.47" width="4.44" height="4.44"/><rect class="cls-4" x="26.86" y="53.14" width="4.44" height="4.44"/><rect class="cls-4" x="26.86" y="159.81" width="4.44" height="4.44"/><rect class="cls-4" x="26.86" y="186.47" width="4.44" height="4.44"/><rect class="cls-4" x="26.86" y="133.14" width="4.44" height="4.44"/><rect class="cls-4" x="26.86" y="106.47" width="4.44" height="4.44"/><rect class="cls-4" x="26.86" y="79.81" width="4.44" height="4.44"/><rect class="cls-4" x="106.86" y="133.14" width="4.44" height="4.44"/><rect class="cls-4" x="186.86" y="26.47" width="4.44" height="4.44"/><rect class="cls-4" x="213.53" y="26.47" width="4.44" height="4.44"/><rect class="cls-4" x="106.86" y="26.47" width="4.44" height="4.44"/><rect class="cls-4" x="133.53" y="26.47" width="4.44" height="4.44"/><rect class="cls-4" x="160.2" y="26.47" width="4.44" height="4.44"/><rect class="cls-4" x="80.2" y="26.47" width="4.44" height="4.44"/><rect class="cls-4" x="53.53" y="26.47" width="4.44" height="4.44"/><rect class="cls-4" x="26.86" y="26.47" width="4.44" height="4.44"/></svg>